<svg width="22" height="20" viewBox="0 0 22 20" fill="none" xmlns="http://www.w3.org/2000/svg">
<path d="M19 19C19 19.2652 18.8946 19.5196 18.7071 19.7071C18.5196 19.8946 18.2652 20 18 20H4C3.73478 20 3.48043 19.8946 3.29289 19.7071C3.10536 19.5196 3 19.2652 3 19V10H0L10.327 0.612C10.5111 0.444478 10.7511 0.351643 11 0.351643C11.2489 0.351643 11.4889 0.444478 11.673 0.612L22 10H19V19ZM11 14C11.663 14 12.2989 13.7366 12.7678 13.2678C13.2366 12.7989 13.5 12.163 13.5 11.5C13.5 10.837 13.2366 10.2011 12.7678 9.73223C12.2989 9.26339 11.663 9 11 9C10.337 9 9.70107 9.26339 9.23223 9.73223C8.76339 10.2011 8.5 10.837 8.5 11.5C8.5 12.163 8.76339 12.7989 9.23223 13.2678C9.70107 13.7366 10.337 14 11 14Z" fill="#E2E2E2"/>
</svg>
