<svg width="12" height="12" viewBox="0 0 12 12" fill="none" xmlns="http://www.w3.org/2000/svg">
<path d="M9.9375 11.625H2.0625C1.61495 11.625 1.18573 11.4472 0.869257 11.1307C0.55279 10.8143 0.375 10.3851 0.375 9.9375V0.9375C0.375 0.788316 0.434263 0.645242 0.539752 0.539752C0.645242 0.434263 0.788316 0.375 0.9375 0.375H8.8125C8.96169 0.375 9.10476 0.434263 9.21025 0.539752C9.31574 0.645242 9.375 0.788316 9.375 0.9375V7.6875H11.625V9.9375C11.625 10.3851 11.4472 10.8143 11.1307 11.1307C10.8143 11.4472 10.3851 11.625 9.9375 11.625ZM9.375 8.8125V9.9375C9.375 10.0867 9.43426 10.2298 9.53975 10.3352C9.64524 10.4407 9.78832 10.5 9.9375 10.5C10.0867 10.5 10.2298 10.4407 10.3352 10.3352C10.4407 10.2298 10.5 10.0867 10.5 9.9375V8.8125H9.375ZM8.25 10.5V1.5H1.5V9.9375C1.5 10.0867 1.55926 10.2298 1.66475 10.3352C1.77024 10.4407 1.91332 10.5 2.0625 10.5H8.25ZM2.625 3.1875H7.125V4.3125H2.625V3.1875ZM2.625 5.4375H7.125V6.5625H2.625V5.4375ZM2.625 7.6875H5.4375V8.8125H2.625V7.6875Z" fill="#273D4B"/>
</svg>
